<?xml version="1.0" standalone="no"?>
<!DOCTYPE svg PUBLIC "-//W3C//DTD SVG 20010904//EN"
 "http://www.w3.org/TR/2001/REC-SVG-20010904/DTD/svg10.dtd">
<svg version="1.0" xmlns="http://www.w3.org/2000/svg"
 width="3264.000000pt" height="3264.000000pt" viewBox="0 0 3264.000000 3264.000000"
 preserveAspectRatio="xMidYMid meet">

<g transform="translate(0.000000,3264.000000) scale(0.100000,-0.100000)"
fill="#000000" stroke="none">
<path d="M14685 28940 c-659 -18 -811 -27 -910 -53 -65 -17 -131 -26 -236 -31
-119 -6 -164 -12 -244 -37 -71 -21 -119 -29 -174 -29 -99 0 -196 -16 -248 -41
-27 -13 -78 -23 -150 -29 -115 -10 -156 -19 -194 -43 -13 -8 -73 -20 -133 -26
-77 -9 -122 -19 -155 -36 -27 -14 -80 -28 -131 -35 -46 -6 -110 -22 -142 -36
-31 -13 -88 -28 -126 -34 -79 -11 -97 -17 -132 -42 -15 -10 -60 -23 -110 -30
-58 -8 -97 -19 -121 -35 -23 -15 -63 -28 -105 -34 -45 -6 -83 -19 -108 -35
-24 -16 -63 -29 -104 -35 -45 -6 -76 -18 -99 -35 -22 -17 -55 -29 -94 -34 -58
-8 -109 -31 -109 -49 0 -5 -32 -13 -71 -19 -39 -6 -82 -19 -96 -29 -40 -28
-45 -30 -103 -43 -30 -7 -64 -21 -75 -31 -11 -10 -47 -25 -79 -33 -33 -9 -76
-27 -95 -40 -20 -14 -58 -30 -85 -36 -27 -6 -62 -21 -77 -34 -16 -14 -52 -29
-80 -35 -28 -6 -65 -23 -81 -36 -16 -14 -47 -28 -68 -31 -21 -4 -60 -22 -86
-40 -26 -19 -57 -34 -69 -34 -12 0 -41 -14 -65 -31 -23 -17 -57 -33 -75 -36
-18 -3 -44 -16 -59 -30 -15 -13 -49 -31 -77 -39 -27 -8 -58 -24 -67 -35 -9
-11 -35 -24 -57 -30 -22 -6 -58 -24 -80 -39 -22 -16 -59 -36 -82 -46 -24 -9
-43 -20 -43 -24 0 -4 -24 -18 -52 -30 -29 -12 -64 -32 -78 -45 -14 -13 -39
-26 -56 -29 -17 -4 -44 -20 -59 -36 -15 -16 -41 -32 -58 -36 -16 -3 -50 -21
-74 -40 -25 -19 -51 -34 -58 -34 -8 0 -27 -12 -42 -26 -15 -14 -44 -33 -64
-41 -20 -8 -46 -25 -58 -39 -11 -13 -30 -24 -41 -24 -10 0 -34 -13 -52 -28
-18 -15 -52 -36 -75 -46 -24 -11 -45 -27 -48 -36 -3 -10 -17 -21 -31 -24 -28
-7 -147 -85 -184 -120 -14 -13 -35 -27 -47 -30 -11 -4 -36 -20 -55 -36 -18
-17 -42 -33 -52 -36 -11 -4 -30 -19 -44 -35 -13 -16 -30 -29 -38 -29 -7 0 -28
-13 -46 -28 -18 -16 -50 -39 -70 -51 -21 -12 -38 -27 -38 -32 0 -6 -16 -17
-35 -25 -19 -8 -42 -25 -51 -39 -9 -14 -22 -25 -30 -25 -7 0 -34 -18 -59 -40
-25 -22 -50 -40 -54 -40 -4 0 -23 -15 -43 -32 -19 -18 -59 -51 -87 -73 -29
-22 -67 -55 -86 -72 -19 -18 -39 -33 -45 -33 -6 0 -25 -13 -43 -29 -17 -16
-57 -50 -87 -75 -49 -41 -86 -74 -227 -203 -20 -18 -40 -33 -44 -33 -4 0 -41
-32 -81 -70 -101 -98 -124 -119 -193 -180 -90 -79 -344 -331 -480 -476 -66
-71 -136 -145 -155 -166 -19 -20 -51 -55 -70 -78 -19 -23 -50 -55 -68 -72 -17
-18 -32 -35 -32 -39 0 -4 -15 -22 -32 -41 -18 -19 -41 -43 -50 -53 -9 -11 -23
-25 -30 -32 -12 -11 -35 -37 -136 -157 -23 -28 -56 -66 -72 -85 -17 -19 -30
-42 -30 -52 0 -10 -13 -25 -30 -34 -16 -9 -30 -22 -30 -31 0 -8 -15 -30 -32
-48 -57 -56 -143 -166 -184 -234 -11 -19 -28 -38 -37 -44 -9 -5 -24 -23 -33
-41 -9 -18 -29 -45 -44 -60 -15 -16 -30 -41 -33 -57 -4 -16 -15 -31 -26 -35
-10 -3 -25 -20 -32 -38 -7 -18 -26 -43 -41 -55 -16 -13 -28 -29 -28 -34 0 -6
-16 -30 -35 -54 -19 -23 -35 -49 -35 -58 0 -8 -16 -31 -35 -50 -19 -20 -35
-41 -35 -48 0 -7 -14 -28 -30 -46 -16 -19 -34 -49 -40 -68 -7 -19 -20 -39 -31
-44 -10 -6 -28 -29 -40 -52 -12 -23 -28 -48 -36 -57 -9 -8 -23 -33 -33 -56
-10 -23 -29 -54 -43 -69 -14 -15 -29 -41 -32 -57 -4 -16 -20 -42 -36 -58 -16
-16 -29 -36 -29 -44 0 -8 -16 -34 -35 -57 -19 -23 -35 -52 -35 -64 0 -12 -13
-35 -29 -50 -15 -15 -34 -46 -41 -68 -6 -23 -22 -50 -35 -59 -12 -10 -25 -33
-29 -50 -3 -18 -17 -47 -31 -65 -14 -18 -34 -54 -46 -80 -11 -26 -26 -52 -33
-58 -8 -6 -19 -28 -26 -48 -6 -20 -23 -54 -37 -75 -14 -21 -32 -55 -40 -77 -7
-22 -20 -47 -27 -56 -21 -23 -46 -77 -46 -98 0 -10 -13 -33 -29 -51 -17 -19
-32 -50 -37 -74 -3 -23 -20 -58 -35 -77 -16 -19 -29 -43 -29 -53 0 -25 -24
-80 -44 -100 -9 -9 -24 -42 -32 -74 -8 -32 -24 -67 -34 -78 -10 -11 -26 -45
-33 -76 -8 -30 -27 -72 -41 -93 -14 -21 -26 -49 -26 -62 0 -12 -15 -51 -33
-86 -19 -35 -39 -84 -45 -110 -7 -26 -23 -63 -36 -82 -13 -19 -26 -57 -30 -84
-3 -28 -15 -60 -25 -73 -22 -29 -51 -113 -51 -148 0 -14 -13 -45 -29 -68 -19
-28 -31 -62 -36 -99 -4 -33 -17 -74 -32 -97 -14 -22 -29 -67 -35 -105 -6 -37
-21 -83 -34 -104 -15 -23 -28 -65 -34 -108 -6 -39 -21 -92 -34 -119 -14 -27
-29 -83 -36 -130 -8 -57 -19 -95 -36 -120 -16 -25 -26 -57 -30 -101 -7 -73
-18 -116 -44 -175 -10 -22 -25 -88 -33 -146 -9 -59 -24 -124 -36 -146 -13 -26
-25 -84 -35 -171 -8 -72 -20 -139 -25 -149 -19 -35 -40 -150 -46 -248 -4 -55
-13 -111 -20 -125 -26 -46 -36 -104 -45 -260 -6 -97 -19 -198 -35 -270 -20
-90 -28 -163 -35 -331 -5 -119 -12 -223 -15 -230 -2 -8 -14 -86 -25 -174 -18
-145 -20 -219 -20 -805 0 -650 4 -746 41 -965 6 -33 14 -153 19 -266 7 -163
14 -230 35 -325 18 -76 30 -171 36 -264 8 -141 26 -247 47 -272 5 -7 13 -56
16 -108 8 -106 32 -229 52 -269 8 -14 14 -44 14 -66 1 -66 28 -216 45 -241 8
-13 19 -54 25 -91 16 -111 29 -173 44 -206 19 -41 33 -97 41 -167 4 -30 18
-74 31 -97 15 -25 28 -72 35 -120 6 -43 22 -103 36 -133 13 -30 29 -84 34
-120 5 -35 21 -83 34 -106 14 -24 29 -71 34 -107 5 -37 19 -81 33 -103 13 -22
29 -68 36 -103 6 -35 23 -81 37 -102 14 -21 25 -47 25 -58 0 -27 31 -123 46
-141 7 -8 20 -44 29 -80 9 -36 24 -76 34 -90 10 -14 26 -51 35 -82 9 -31 29
-82 46 -113 16 -31 30 -67 30 -80 0 -12 12 -40 27 -61 14 -21 32 -64 40 -94 8
-30 23 -64 33 -75 21 -23 40 -68 40 -96 0 -10 13 -37 29 -59 16 -22 32 -56 36
-76 3 -20 19 -54 35 -75 16 -22 31 -57 35 -79 4 -21 17 -50 31 -65 13 -14 27
-38 30 -53 8 -32 34 -83 50 -97 6 -5 18 -30 26 -55 8 -25 27 -62 41 -83 14
-21 31 -54 38 -74 6 -19 19 -43 29 -53 9 -9 26 -39 36 -65 10 -27 28 -59 39
-71 12 -13 27 -41 34 -63 6 -22 20 -46 30 -53 10 -7 24 -32 31 -55 7 -23 26
-54 41 -69 16 -15 29 -36 29 -47 0 -10 13 -36 28 -56 16 -20 39 -57 51 -83 13
-27 29 -48 36 -48 7 0 16 -15 19 -34 4 -18 18 -46 32 -61 15 -16 34 -47 44
-70 10 -23 24 -48 32 -56 8 -8 27 -35 42 -61 15 -27 31 -48 35 -48 5 0 16 -18
26 -41 10 -22 31 -55 47 -72 15 -18 31 -41 34 -52 4 -11 20 -32 35 -46 16 -15
29 -35 29 -46 0 -10 16 -35 35 -57 19 -21 35 -44 35 -50 0 -7 16 -27 35 -45
19 -17 35 -37 35 -44 0 -7 13 -26 30 -42 16 -16 30 -34 30 -41 0 -13 81 -124
123 -168 15 -16 27 -32 27 -35 0 -4 23 -36 50 -71 28 -36 68 -89 90 -118 23
-28 45 -52 51 -52 5 0 15 -13 20 -29 6 -16 21 -37 35 -46 13 -8 24 -22 24 -30
0 -8 14 -27 31 -42 17 -16 37 -39 44 -53 8 -14 28 -41 45 -60 18 -19 48 -53
67 -75 19 -22 51 -59 71 -82 21 -22 42 -47 48 -55 6 -7 20 -21 30 -31 11 -9
34 -34 52 -55 18 -20 48 -53 67 -74 19 -20 35 -39 35 -43 0 -3 15 -21 32 -38
18 -18 101 -104 183 -191 83 -88 161 -170 175 -183 102 -98 252 -240 321 -303
46 -41 99 -92 119 -112 19 -21 38 -38 42 -38 3 0 23 -15 43 -34 20 -19 52 -47
71 -63 19 -15 51 -45 71 -66 20 -20 42 -37 50 -37 7 0 13 -7 13 -15 0 -8 3
-15 8 -15 8 0 118 -91 169 -140 17 -16 36 -30 42 -30 7 0 27 -15 46 -32 19
-18 57 -51 86 -73 28 -22 66 -53 83 -69 17 -15 43 -34 57 -42 15 -7 41 -27 57
-44 17 -16 40 -30 51 -30 12 0 21 -6 21 -13 0 -14 35 -47 50 -47 5 0 26 -16
47 -35 21 -19 43 -35 50 -35 6 0 24 -13 40 -28 16 -16 45 -37 65 -46 21 -10
40 -26 43 -37 4 -10 12 -19 20 -19 7 0 37 -18 66 -40 30 -22 59 -40 65 -40 7
0 22 -11 35 -25 13 -14 41 -35 61 -45 20 -11 49 -31 64 -45 15 -14 38 -28 51
-31 13 -4 37 -19 52 -35 16 -15 40 -31 55 -35 14 -3 40 -19 57 -35 17 -16 39
-29 49 -29 9 0 30 -12 45 -26 16 -15 43 -32 60 -39 16 -8 43 -25 58 -39 15
-14 34 -26 41 -26 7 0 32 -14 56 -31 23 -17 57 -36 74 -41 17 -6 42 -21 56
-34 14 -13 51 -34 83 -48 31 -14 57 -29 57 -34 0 -5 25 -19 55 -31 30 -13 55
-26 55 -31 0 -4 26 -18 58 -30 31 -13 62 -28 67 -35 13 -15 70 -45 87 -45 7 0
35 -16 62 -35 27 -19 58 -35 69 -35 10 0 36 -13 57 -30 21 -16 49 -30 62 -30
14 0 47 -16 74 -35 27 -19 58 -35 70 -35 11 0 41 -13 67 -29 25 -17 65 -35 89
-41 24 -7 57 -22 73 -34 17 -13 55 -31 85 -40 30 -10 66 -26 80 -35 14 -10 50
-26 80 -36 30 -10 67 -26 81 -36 14 -10 48 -23 75 -30 50 -12 57 -15 109 -49
16 -11 50 -22 75 -26 25 -4 52 -12 60 -19 28 -24 75 -42 123 -49 27 -4 67 -20
91 -37 30 -20 56 -29 83 -29 26 0 54 -10 85 -29 26 -16 68 -32 95 -36 55 -7
121 -30 143 -50 8 -7 46 -18 83 -23 38 -6 87 -20 108 -31 22 -12 80 -30 129
-40 49 -11 100 -27 114 -36 13 -9 69 -25 123 -36 54 -11 119 -28 145 -39 25
-11 82 -25 125 -31 43 -6 101 -22 130 -36 39 -18 79 -27 164 -35 62 -5 122
-16 133 -23 39 -25 129 -45 200 -45 41 0 82 -6 97 -14 58 -30 129 -46 239 -52
73 -4 148 -16 205 -31 61 -17 145 -29 260 -38 94 -7 213 -23 265 -35 53 -12
146 -23 210 -26 63 -2 144 -7 180 -9 192 -13 1354 -17 1760 -6 461 13 517 17
660 49 47 11 150 23 232 27 118 5 161 12 220 32 54 18 108 27 208 34 129 9
231 29 257 51 7 6 59 14 115 18 95 8 175 27 202 49 6 5 60 14 120 20 83 7 120
16 157 35 26 13 74 27 106 31 84 10 140 23 187 44 22 10 75 24 116 31 41 7
102 25 135 40 33 15 85 31 115 35 30 4 79 18 108 32 29 13 81 29 115 35 34 5
80 21 101 35 26 17 63 28 108 34 49 6 78 16 102 34 20 15 53 27 82 31 27 4 70
19 96 35 27 16 67 32 90 35 46 7 93 28 116 50 7 8 28 14 45 14 27 0 94 27 147
59 8 5 38 14 65 20 28 7 59 20 70 30 11 10 47 26 80 36 33 11 65 22 70 26 35
24 85 47 115 52 19 4 47 18 62 32 14 13 37 26 50 29 12 3 35 7 51 11 15 3 37
15 48 26 12 12 44 27 72 35 27 7 62 24 76 38 15 14 44 28 68 32 25 4 53 17 70
34 15 15 44 30 64 34 20 3 50 19 68 35 18 16 49 31 70 35 21 3 49 17 62 30 13
13 43 29 67 37 23 7 53 23 66 36 13 12 43 30 67 38 24 9 53 24 64 35 11 10 37
26 57 34 20 9 57 29 81 46 25 16 51 30 59 30 8 0 25 11 38 25 13 14 41 30 61
37 21 6 50 24 65 39 15 16 35 29 44 29 10 0 35 14 56 31 22 17 53 37 69 44 17
7 43 24 58 39 15 14 36 26 45 26 9 0 36 15 59 34 23 18 56 39 73 46 16 7 30
18 30 25 0 7 19 20 43 29 24 9 56 30 72 46 16 17 34 30 42 30 7 0 28 16 47 35
20 19 42 35 50 35 9 0 30 13 48 29 18 15 48 36 65 45 18 9 40 28 49 41 9 14
24 25 33 25 10 0 30 13 46 30 16 16 34 30 40 30 7 0 33 18 58 40 25 22 49 40
54 40 5 0 23 16 40 35 17 19 38 35 46 35 9 0 24 10 34 23 10 12 29 28 42 35
12 7 56 41 98 75 41 34 86 68 99 75 14 8 30 24 36 37 6 13 23 27 37 30 15 3
31 16 36 28 6 12 20 27 33 33 13 6 38 25 55 42 18 16 40 33 49 38 18 10 146
124 209 187 20 20 42 37 47 37 5 0 14 11 22 24 7 14 26 30 41 37 16 6 29 18
29 26 0 7 15 23 34 34 19 11 36 28 39 39 3 11 16 24 29 29 12 5 33 23 46 40
12 17 28 31 35 31 7 0 21 14 32 30 11 16 26 30 32 30 7 0 23 16 35 35 13 19
27 35 32 35 11 0 116 106 116 117 0 6 11 15 25 21 14 7 30 23 35 36 5 14 23
32 40 41 16 8 30 22 30 31 0 8 13 23 30 32 52 29 59 81 40 267 -8 77 -20 131
-40 180 -17 41 -31 98 -34 139 -4 48 -13 81 -31 112 -17 28 -29 70 -35 119
-10 81 -13 89 -41 120 -10 11 -22 49 -28 83 -6 35 -21 83 -35 106 -13 23 -32
70 -40 104 -9 34 -28 78 -41 98 -13 20 -27 52 -31 73 -3 20 -18 54 -34 76 -15
22 -31 59 -34 81 -4 24 -19 55 -36 73 -15 18 -30 49 -34 69 -3 22 -18 50 -34
67 -17 18 -31 46 -35 69 -4 24 -18 51 -37 71 -16 17 -30 41 -30 53 0 12 -13
36 -29 54 -15 18 -34 50 -40 70 -7 21 -23 46 -35 55 -12 10 -26 31 -30 46 -3
15 -22 44 -41 65 -18 21 -37 50 -40 65 -4 15 -15 32 -25 37 -9 5 -27 31 -38
58 -12 27 -33 57 -47 66 -14 9 -25 23 -25 30 0 8 -16 33 -35 56 -19 23 -35 47
-35 53 0 7 -16 28 -35 47 -19 19 -35 39 -35 46 0 7 -15 25 -32 40 -18 15 -38
39 -45 54 -6 16 -20 31 -31 34 -11 4 -23 18 -26 31 -3 13 -18 36 -32 52 -14
15 -48 55 -76 88 -27 33 -64 77 -82 97 -17 20 -36 42 -42 50 -6 7 -21 20 -33
28 -11 8 -21 20 -21 28 0 7 -16 22 -35 33 -19 12 -35 26 -35 31 0 13 -105 118
-118 118 -5 0 -12 9 -15 20 -3 11 -18 27 -34 37 -16 9 -35 29 -42 45 -7 15
-17 28 -22 28 -5 0 -42 34 -84 75 -65 65 -79 75 -110 75 -48 0 -71 -14 -91
-53 -9 -18 -30 -47 -45 -65 -16 -18 -29 -38 -29 -45 0 -7 -16 -30 -35 -50 -19
-20 -35 -41 -35 -46 0 -5 -15 -24 -32 -43 -18 -19 -51 -58 -73 -87 -22 -29
-55 -69 -72 -89 -18 -20 -33 -40 -33 -44 0 -4 -15 -23 -32 -42 -18 -20 -49
-54 -68 -77 -19 -22 -47 -53 -61 -68 -15 -14 -48 -51 -74 -81 -59 -68 -322
-347 -353 -375 -12 -11 -57 -54 -100 -95 -43 -41 -116 -108 -162 -149 -47 -41
-98 -87 -115 -102 -63 -60 -114 -105 -148 -134 -20 -16 -55 -47 -78 -68 -23
-20 -46 -37 -51 -37 -11 0 -73 -48 -130 -102 -22 -21 -46 -38 -52 -38 -7 0
-22 -13 -34 -30 -13 -16 -31 -30 -41 -30 -11 0 -30 -12 -43 -28 -12 -15 -38
-34 -56 -41 -18 -8 -41 -24 -50 -36 -10 -12 -37 -32 -60 -44 -23 -12 -42 -25
-42 -30 0 -5 -13 -14 -29 -21 -16 -6 -47 -27 -68 -46 -21 -19 -47 -37 -58 -40
-11 -4 -35 -20 -53 -35 -18 -16 -39 -29 -47 -29 -8 0 -32 -16 -54 -35 -21 -19
-45 -35 -53 -35 -8 0 -30 -12 -49 -26 -19 -14 -57 -36 -86 -50 -28 -13 -53
-31 -56 -38 -3 -8 -21 -17 -39 -21 -18 -4 -46 -20 -63 -35 -16 -16 -48 -33
-71 -39 -22 -6 -49 -19 -58 -30 -9 -10 -38 -27 -64 -36 -26 -10 -56 -26 -68
-36 -11 -11 -42 -26 -70 -36 -27 -9 -62 -27 -77 -40 -16 -13 -48 -28 -72 -34
-24 -6 -53 -22 -66 -35 -14 -15 -43 -28 -81 -35 -32 -6 -58 -15 -58 -19 0 -14
-64 -47 -102 -53 -21 -3 -53 -17 -71 -31 -19 -15 -54 -29 -81 -32 -27 -4 -63
-18 -84 -34 -21 -15 -55 -30 -77 -34 -22 -4 -65 -20 -95 -36 -30 -15 -82 -33
-114 -39 -33 -6 -69 -19 -80 -30 -12 -12 -49 -24 -88 -31 -37 -7 -85 -21 -105
-32 -44 -23 -127 -48 -162 -48 -13 0 -50 -14 -83 -30 -41 -21 -86 -34 -141
-41 -45 -6 -86 -14 -92 -18 -20 -16 -112 -41 -185 -50 -41 -6 -100 -21 -130
-35 -42 -19 -79 -26 -160 -32 -75 -4 -130 -14 -193 -35 -57 -19 -109 -29 -147
-29 -84 0 -205 -18 -275 -40 -35 -12 -103 -22 -165 -25 -58 -3 -244 -12 -415
-21 -339 -17 -799 -15 -1200 5 -299 15 -404 26 -494 51 -41 11 -124 23 -185
26 -77 5 -134 14 -186 31 -47 16 -118 29 -190 35 -86 8 -127 16 -165 34 -29
15 -85 29 -135 35 -47 6 -114 22 -148 36 -35 14 -96 29 -135 34 -40 5 -94 20
-122 34 -27 14 -84 32 -125 40 -41 9 -81 22 -90 30 -9 9 -59 24 -111 36 -51
11 -101 27 -109 34 -25 23 -86 45 -123 45 -19 0 -45 8 -58 18 -26 20 -67 37
-114 47 -16 3 -50 19 -75 35 -25 15 -66 31 -92 34 -28 4 -60 17 -77 32 -16 13
-44 27 -63 30 -36 7 -85 29 -108 49 -8 7 -35 18 -60 25 -25 7 -58 22 -75 34
-16 12 -52 30 -80 41 -27 10 -58 26 -68 36 -10 11 -26 19 -37 19 -10 0 -21 4
-24 9 -3 5 -18 12 -33 16 -15 3 -32 13 -37 20 -6 8 -35 23 -63 34 -29 11 -61
29 -72 40 -11 11 -35 24 -55 29 -19 6 -52 24 -73 40 -21 17 -52 33 -70 37 -17
3 -34 13 -37 21 -3 8 -29 25 -58 38 -29 13 -61 33 -71 44 -10 11 -31 23 -45
27 -15 3 -40 19 -57 34 -16 16 -42 32 -57 37 -15 5 -40 19 -55 32 -43 35 -124
89 -163 109 -19 10 -43 28 -53 41 -10 12 -24 22 -31 22 -7 0 -32 18 -55 39
-23 22 -54 42 -68 46 -14 3 -34 17 -45 30 -10 13 -28 27 -40 31 -12 3 -36 21
-54 38 -46 44 -103 89 -146 115 -21 12 -38 27 -38 32 0 5 -12 15 -28 22 -15 6
-38 24 -50 40 -13 15 -27 27 -32 27 -4 0 -25 17 -47 37 -71 69 -179 163 -204
180 -13 9 -36 29 -50 45 -14 15 -30 28 -35 28 -5 0 -17 13 -28 28 -10 16 -31
34 -46 40 -15 7 -32 23 -38 37 -6 13 -22 27 -36 31 -14 3 -27 15 -30 30 -4 13
-11 24 -16 24 -12 0 -182 169 -205 204 -9 14 -25 28 -35 31 -10 3 -23 19 -30
35 -7 17 -18 30 -25 30 -7 0 -20 11 -28 24 -9 13 -45 54 -81 92 -36 38 -66 72
-66 77 0 4 -17 25 -37 46 -21 22 -56 61 -78 87 -22 26 -55 61 -73 77 -17 17
-32 36 -32 43 0 8 -12 27 -28 43 -37 40 -85 100 -108 136 -10 17 -31 41 -47
53 -15 13 -27 30 -27 38 0 8 -12 24 -26 37 -14 12 -31 36 -38 52 -7 17 -25 41
-39 55 -15 14 -27 30 -27 36 0 6 -16 29 -35 50 -19 21 -35 44 -35 51 0 7 -12
27 -27 45 -16 18 -37 49 -47 68 -11 19 -27 40 -36 47 -10 7 -23 27 -30 45 -7
18 -21 42 -31 53 -9 11 -27 40 -40 65 -12 25 -33 55 -45 68 -13 13 -25 36 -29
51 -3 16 -19 41 -35 56 -16 15 -32 42 -36 59 -4 17 -19 45 -34 63 -16 17 -31
45 -35 61 -3 16 -17 40 -31 53 -13 13 -27 39 -30 60 -6 37 -35 79 -54 79 -6 0
-10 6 -10 13 0 32 -24 92 -44 111 -13 11 -26 37 -30 57 -3 21 -18 54 -33 75
-14 22 -34 64 -45 94 -10 30 -25 60 -32 65 -13 10 -46 93 -46 118 0 7 -11 22
-25 35 -16 16 -28 43 -36 83 -6 32 -15 59 -18 59 -14 0 -49 76 -55 120 -4 24
-18 59 -32 77 -14 18 -27 52 -31 80 -3 27 -18 66 -33 89 -17 25 -31 63 -35 95
-9 64 -26 109 -48 128 -11 8 -17 28 -17 52 0 42 -25 126 -45 149 -7 8 -22 62
-33 118 -11 57 -27 111 -36 121 -8 9 -22 61 -32 116 -9 55 -27 125 -39 155
-14 34 -28 97 -35 160 -6 58 -17 112 -24 120 -21 26 -35 90 -46 225 -7 84 -20
156 -35 203 -19 58 -25 105 -31 225 -5 111 -13 178 -31 247 -20 81 -25 133
-33 345 -12 323 -12 752 0 1080 8 221 13 275 34 360 17 71 26 143 30 248 5
116 12 165 31 225 14 47 28 126 35 202 13 155 17 177 42 217 12 21 22 65 29
123 11 109 16 134 39 180 10 19 25 79 33 132 9 53 26 114 37 136 11 21 27 74
35 118 8 43 27 102 41 130 14 29 28 78 31 110 3 36 13 67 24 79 23 26 35 59
44 122 4 29 11 56 16 59 17 10 46 78 53 124 4 25 18 62 32 83 13 21 29 60 34
88 11 55 14 64 40 94 10 11 23 44 30 73 7 29 22 65 35 80 12 15 30 54 40 87 9
33 23 63 31 68 7 4 21 33 31 65 9 31 27 70 40 85 12 15 29 50 37 77 8 27 24
58 35 69 11 11 26 39 33 63 7 24 24 55 39 70 14 15 29 41 33 58 3 18 17 45 31
62 14 16 25 35 25 43 0 7 15 36 34 64 19 28 39 66 45 84 7 19 23 44 37 56 13
12 27 35 31 51 3 16 16 40 28 52 12 13 34 46 48 75 15 28 31 55 37 58 6 4 18
24 27 46 8 21 19 39 24 39 5 0 25 26 45 58 20 31 44 66 54 77 9 11 20 32 24
47 3 15 15 29 26 33 10 3 22 15 25 26 4 11 24 40 46 65 21 25 39 54 39 64 0
10 14 28 30 40 17 12 30 28 30 35 0 8 17 32 38 53 20 22 55 65 77 97 22 32 52
69 68 83 15 15 27 32 27 39 0 7 18 32 41 55 22 24 55 60 72 80 18 21 44 50 58
65 15 16 48 53 74 83 26 30 59 69 74 85 14 17 34 42 44 58 10 15 23 27 31 27
7 0 21 16 32 35 10 19 24 35 32 35 7 0 21 13 30 29 9 17 27 35 39 40 12 6 29
24 37 40 9 16 24 32 34 35 10 3 25 19 35 35 10 17 26 33 37 36 11 4 27 20 35
36 9 16 21 29 28 29 6 0 28 17 47 38 41 42 165 153 207 186 16 11 38 30 49 41
20 19 38 35 154 136 25 22 56 50 70 64 14 14 30 25 36 25 6 0 25 16 44 35 19
19 40 35 47 35 6 0 31 18 55 40 24 22 50 42 59 45 9 3 21 17 27 30 7 15 20 25
32 25 11 0 30 12 43 26 12 14 37 32 54 39 18 8 44 25 58 39 14 14 41 32 60 41
19 10 37 25 40 35 3 10 19 22 35 25 17 4 48 21 69 39 21 18 53 39 70 46 17 7
31 16 31 21 0 5 21 20 48 33 26 13 59 35 74 49 15 14 40 28 57 32 16 3 32 13
35 21 3 8 29 25 58 38 29 13 62 33 72 45 11 12 35 25 55 31 20 5 48 21 63 34
14 14 39 28 55 32 15 3 44 18 63 33 19 15 54 33 77 39 24 7 51 21 60 31 10 10
40 26 67 35 28 9 59 25 70 35 12 10 44 26 71 36 28 9 59 25 70 35 11 10 45 26
75 36 30 10 69 28 86 41 17 13 52 27 77 32 25 4 59 20 76 33 17 15 49 28 77
33 27 4 66 19 89 35 22 15 60 31 85 35 25 4 65 19 90 35 25 15 66 30 93 34 43
5 93 28 108 49 3 5 38 13 78 18 71 8 102 19 131 45 9 7 49 18 90 24 41 7 93
22 115 35 23 13 74 28 120 35 44 6 98 20 120 29 53 23 114 38 202 51 40 5 90
19 112 31 27 14 73 23 143 30 136 12 160 16 216 40 36 16 84 23 201 31 94 6
169 15 190 24 66 28 124 34 521 51 468 21 719 22 1130 5 385 -15 531 -28 600
-52 36 -13 106 -22 205 -29 121 -8 162 -14 210 -34 45 -19 93 -27 193 -35 103
-8 138 -15 160 -30 30 -22 54 -28 162 -42 41 -5 102 -20 135 -34 33 -13 96
-29 138 -35 48 -7 95 -20 120 -35 23 -14 65 -27 92 -31 70 -10 125 -24 125
-34 0 -15 55 -33 124 -41 44 -5 72 -13 77 -23 11 -19 50 -34 122 -46 33 -6 72
-21 90 -35 18 -13 54 -27 80 -31 28 -4 60 -18 76 -31 16 -13 57 -30 91 -38 34
-8 72 -24 84 -35 12 -11 46 -25 76 -32 31 -6 66 -21 80 -34 14 -13 45 -28 70
-35 25 -6 64 -25 87 -41 23 -16 48 -29 56 -29 23 0 82 -27 96 -44 8 -9 35 -22
61 -30 27 -8 58 -24 69 -35 11 -11 39 -25 63 -32 24 -7 55 -23 69 -36 14 -13
43 -29 64 -34 21 -6 47 -22 58 -35 10 -14 38 -29 62 -35 26 -7 50 -20 59 -34
9 -13 32 -29 53 -36 21 -6 53 -25 71 -40 18 -16 42 -29 53 -29 11 0 32 -13 47
-29 15 -16 48 -38 75 -49 26 -12 47 -26 47 -32 0 -6 16 -18 35 -26 20 -8 44
-23 55 -34 10 -10 37 -28 59 -40 22 -11 51 -31 65 -45 14 -14 32 -25 40 -25 9
0 30 -16 47 -35 18 -19 38 -35 46 -35 7 0 30 -16 52 -35 21 -19 46 -35 55 -35
9 0 25 -13 34 -30 9 -16 22 -30 29 -30 6 0 32 -17 57 -37 84 -72 121 -100 146
-113 14 -7 37 -25 52 -39 15 -14 45 -41 65 -59 67 -57 117 -102 148 -131 17
-15 74 -67 129 -115 109 -97 429 -413 483 -479 20 -23 66 -75 104 -115 38 -40
69 -77 69 -83 0 -5 6 -9 14 -9 7 0 22 -12 31 -27 17 -27 32 -44 93 -108 16
-17 37 -45 46 -63 9 -17 20 -32 25 -32 5 0 21 -19 36 -42 16 -24 39 -54 52
-68 56 -61 103 -122 103 -134 0 -7 11 -18 25 -24 14 -6 27 -23 31 -39 4 -15
19 -41 34 -58 15 -16 35 -44 44 -62 20 -39 43 -53 90 -53 32 0 46 10 111 75
41 41 79 75 84 75 6 0 18 14 26 30 9 17 27 35 40 40 14 5 27 21 31 35 3 14 11
25 18 25 13 0 116 103 116 116 0 5 16 19 35 32 19 12 35 28 35 35 0 7 14 21
30 30 17 10 30 23 30 28 0 5 18 29 40 52 76 82 130 148 130 161 0 7 11 18 25
24 16 7 28 23 31 42 4 17 15 32 26 36 10 3 26 20 34 38 9 18 29 41 45 52 16
10 29 25 29 31 0 7 15 30 34 50 18 21 36 48 40 60 4 13 20 36 37 52 16 16 29
36 29 45 0 9 12 23 26 33 14 9 36 40 49 70 13 29 29 53 34 53 6 0 18 17 26 38
9 20 27 48 40 62 13 14 31 41 39 60 8 20 24 44 35 54 11 10 26 35 32 55 7 20
25 51 40 69 16 18 29 41 29 52 0 11 14 35 30 53 17 19 33 50 36 68 4 19 19 48
35 64 15 17 32 50 38 74 5 24 21 55 35 70 15 16 29 46 35 73 4 26 20 61 35 78
14 17 26 38 26 45 0 25 31 108 51 134 10 14 23 51 29 81 6 30 21 70 35 90 14
21 29 63 36 105 6 39 18 74 26 78 21 13 34 53 44 134 5 48 15 82 29 101 25 33
39 89 40 150 0 27 11 67 29 105 24 49 31 81 36 157 3 52 11 115 17 140 13 55
-3 123 -34 148 -11 9 -26 23 -32 30 -9 12 -26 29 -66 69 -5 4 -64 65 -132 136
-68 70 -128 127 -134 127 -5 0 -18 13 -27 29 -10 17 -25 32 -35 35 -10 3 -26
19 -35 36 -10 16 -24 30 -32 30 -8 0 -25 14 -37 31 -13 17 -33 35 -46 40 -12
5 -27 20 -32 34 -5 13 -20 27 -33 30 -14 4 -30 18 -36 31 -6 14 -19 28 -28 31
-10 4 -48 36 -85 72 -83 82 -131 125 -198 176 -29 22 -68 55 -87 73 -19 18
-45 35 -58 38 -12 3 -28 17 -34 30 -6 14 -19 27 -28 31 -10 3 -31 19 -48 35
-49 47 -125 107 -156 123 -16 9 -29 20 -29 26 0 5 -20 18 -45 29 -25 11 -45
26 -45 34 0 9 -17 24 -39 35 -21 11 -41 27 -45 36 -3 9 -24 24 -46 34 -21 9
-49 30 -60 44 -12 15 -30 27 -41 27 -11 0 -35 15 -54 33 -59 58 -126 107 -145
107 -11 0 -35 16 -54 35 -20 19 -41 35 -49 35 -7 0 -26 13 -42 30 -15 16 -43
34 -62 41 -18 6 -39 19 -45 28 -7 10 -26 25 -43 34 -16 8 -42 26 -57 40 -15
14 -43 30 -63 37 -19 6 -48 25 -64 41 -16 16 -36 29 -44 29 -8 0 -31 14 -52
30 -21 17 -50 33 -64 37 -14 3 -38 18 -52 34 -15 15 -45 33 -67 39 -23 6 -47
19 -54 29 -7 10 -31 26 -53 35 -22 10 -51 27 -65 40 -14 12 -43 28 -66 34 -22
7 -49 21 -59 32 -9 10 -39 26 -66 35 -27 9 -54 25 -59 35 -5 10 -33 26 -62 36
-29 9 -61 27 -70 40 -11 13 -34 25 -59 29 -24 4 -52 18 -70 36 -18 17 -45 31
-69 35 -22 4 -53 19 -71 34 -18 17 -49 32 -73 36 -23 3 -55 19 -73 35 -18 15
-50 31 -70 35 -21 3 -50 18 -65 31 -15 15 -47 29 -74 34 -29 6 -59 20 -74 34
-15 14 -44 28 -66 32 -45 7 -85 25 -103 47 -7 9 -29 18 -50 22 -46 9 -111 34
-111 44 0 10 -45 27 -92 36 -20 3 -51 17 -69 30 -18 13 -59 29 -92 35 -34 7
-71 22 -88 36 -19 16 -51 28 -96 36 -38 6 -74 17 -81 24 -24 23 -65 40 -116
48 -28 4 -64 17 -81 31 -21 16 -54 27 -104 34 -49 7 -83 18 -104 34 -21 15
-58 28 -104 36 -40 6 -83 20 -96 30 -28 22 -48 27 -143 39 -48 6 -84 17 -110
34 -27 18 -64 29 -118 37 -45 6 -95 19 -114 31 -21 12 -77 26 -141 36 -71 10
-119 23 -146 39 -30 17 -67 26 -149 34 -60 6 -123 18 -139 27 -51 26 -86 33
-206 43 -68 6 -121 16 -130 24 -26 22 -98 36 -241 46 -101 7 -151 15 -200 34
-54 20 -93 25 -215 31 -85 4 -185 15 -230 25 -154 36 -203 40 -595 50 -651 16
-1007 19 -1355 10z m1370 -50 c110 -6 227 -15 260 -20 90 -14 317 -38 430 -45
55 -4 152 -18 215 -31 63 -14 159 -29 214 -35 54 -5 162 -23 240 -39 77 -15
168 -31 201 -35 33 -4 85 -15 115 -25 30 -10 110 -28 177 -40 67 -11 148 -30
179 -40 32 -11 87 -25 123 -30 36 -6 95 -22 131 -35 36 -13 102 -30 147 -39
44 -8 94 -21 110 -29 15 -8 55 -20 88 -27 33 -7 87 -23 121 -35 33 -13 94 -31
135 -41 41 -9 90 -25 110 -35 21 -10 72 -28 114 -39 42 -11 93 -29 114 -39 20
-10 60 -24 89 -30 29 -6 63 -17 75 -26 12 -8 53 -24 90 -35 37 -11 88 -31 114
-44 27 -13 64 -27 83 -31 19 -4 53 -17 75 -30 22 -13 65 -30 95 -39 30 -9 82
-30 114 -46 32 -17 66 -30 74 -30 8 0 34 -11 56 -24 23 -13 66 -31 96 -41 30
-10 62 -23 70 -30 8 -8 40 -23 70 -35 30 -12 66 -28 78 -37 13 -8 48 -23 78
-33 30 -11 69 -30 86 -43 18 -14 50 -30 72 -36 21 -5 46 -17 55 -25 9 -8 39
-23 67 -34 28 -11 68 -32 89 -46 21 -14 43 -26 49 -26 12 0 24 -7 136 -70 41
-24 100 -56 130 -72 30 -16 85 -46 122 -66 37 -20 91 -50 120 -66 29 -16 67
-39 84 -52 17 -13 35 -24 41 -24 5 0 32 -16 59 -35 27 -19 53 -35 58 -35 5 0
23 -11 40 -24 17 -13 51 -33 75 -46 25 -12 51 -29 59 -36 8 -8 31 -23 52 -34
21 -11 42 -24 45 -30 3 -6 25 -20 48 -31 23 -12 56 -33 73 -48 30 -25 43 -33
139 -91 23 -14 55 -35 71 -48 48 -38 115 -86 148 -105 17 -11 42 -30 57 -43
14 -13 29 -24 33 -24 5 0 22 -12 40 -26 17 -14 58 -45 91 -69 87 -64 142 -105
191 -145 23 -19 84 -66 134 -105 50 -38 146 -116 213 -173 67 -57 142 -120
166 -140 46 -38 129 -110 171 -150 14 -12 41 -37 61 -55 122 -107 291 -270
485 -464 186 -188 222 -228 227 -258 6 -37 -14 -174 -38 -260 -8 -27 -24 -97
-35 -155 -12 -57 -26 -110 -31 -116 -5 -6 -20 -57 -34 -114 -14 -56 -32 -115
-40 -130 -8 -15 -22 -58 -31 -96 -9 -38 -25 -82 -34 -99 -10 -16 -28 -64 -40
-105 -12 -41 -28 -82 -35 -90 -7 -8 -18 -35 -25 -60 -6 -25 -24 -70 -39 -100
-16 -30 -34 -73 -41 -95 -7 -22 -18 -47 -25 -55 -7 -8 -27 -44 -44 -80 -16
-36 -39 -82 -51 -102 -11 -21 -29 -55 -40 -75 -12 -21 -32 -61 -45 -90 -13
-28 -29 -54 -36 -58 -6 -4 -22 -31 -35 -60 -12 -29 -28 -56 -34 -60 -5 -3 -20
-25 -31 -48 -12 -23 -29 -51 -39 -62 -10 -11 -28 -37 -39 -58 -12 -21 -26 -44
-31 -50 -6 -7 -38 -54 -73 -105 -85 -128 -115 -170 -167 -237 -25 -32 -55 -72
-68 -89 -27 -37 -42 -56 -172 -211 -144 -171 -230 -264 -441 -477 -171 -172
-190 -188 -222 -188 -30 0 -36 5 -48 33 -7 17 -28 49 -46 70 -18 20 -33 40
-33 45 0 4 -12 21 -27 37 -29 30 -42 48 -102 132 -19 26 -43 57 -52 68 -10 11
-38 45 -63 75 -80 96 -122 146 -202 240 -82 96 -255 279 -418 442 -144 144
-259 248 -607 551 -20 18 -58 48 -84 67 -26 19 -67 51 -90 70 -24 19 -70 54
-103 78 -33 24 -66 50 -73 58 -7 9 -29 24 -48 35 -20 11 -63 40 -96 64 -33 24
-100 71 -150 104 -49 33 -103 70 -120 81 -83 56 -154 100 -162 100 -6 0 -30
16 -54 35 -24 19 -49 35 -55 35 -5 0 -26 12 -45 26 -19 14 -54 35 -79 46 -25
10 -54 28 -65 38 -11 10 -30 21 -42 24 -13 4 -48 23 -80 42 -31 19 -62 34 -68
34 -6 0 -29 13 -51 29 -21 15 -53 33 -69 38 -17 6 -47 22 -69 36 -21 15 -53
31 -72 36 -18 5 -46 18 -61 29 -15 11 -48 27 -73 35 -25 8 -65 26 -90 40 -25
14 -63 30 -85 37 -22 7 -49 19 -60 26 -11 7 -45 22 -75 34 -30 11 -71 29 -90
39 -19 11 -61 27 -93 36 -31 9 -76 27 -100 40 -23 13 -60 27 -82 31 -22 3 -67
19 -100 34 -33 15 -78 31 -100 35 -22 4 -63 18 -90 31 -28 13 -82 30 -120 38
-39 8 -91 24 -116 35 -26 12 -80 27 -120 35 -41 8 -94 23 -119 34 -25 11 -90
28 -145 37 -55 9 -125 25 -155 35 -30 11 -99 26 -154 35 -54 9 -108 20 -120
25 -34 13 -183 38 -266 45 -41 4 -110 16 -152 26 -81 20 -128 25 -518 59 -611
53 -946 54 -1450 5 -85 -8 -218 -20 -295 -25 -145 -10 -189 -17 -290 -44 -32
-9 -78 -16 -101 -16 -48 0 -261 -36 -299 -50 -15 -6 -74 -17 -133 -26 -59 -9
-128 -25 -154 -35 -26 -10 -90 -25 -143 -34 -53 -8 -122 -26 -153 -39 -31 -13
-79 -27 -107 -31 -27 -4 -77 -17 -110 -30 -33 -13 -98 -33 -144 -45 -46 -12
-93 -27 -105 -35 -11 -7 -50 -21 -85 -30 -35 -9 -85 -27 -110 -40 -25 -13 -66
-27 -91 -30 -25 -4 -67 -20 -95 -35 -27 -16 -66 -31 -85 -35 -19 -4 -60 -20
-90 -36 -30 -15 -74 -32 -96 -38 -23 -6 -53 -20 -67 -31 -15 -12 -50 -28 -79
-37 -29 -8 -65 -24 -80 -35 -15 -10 -49 -25 -76 -33 -27 -8 -55 -22 -62 -30
-6 -8 -36 -23 -64 -34 -29 -11 -70 -31 -91 -45 -21 -14 -43 -26 -49 -26 -7 0
-32 -13 -57 -29 -25 -15 -62 -34 -82 -40 -21 -7 -50 -23 -65 -35 -15 -13 -42
-28 -61 -34 -19 -7 -48 -23 -66 -36 -17 -13 -48 -31 -69 -40 -21 -9 -51 -27
-68 -41 -16 -14 -34 -25 -40 -25 -6 0 -27 -12 -47 -27 -20 -16 -52 -35 -71
-44 -20 -9 -43 -23 -51 -31 -8 -9 -33 -25 -55 -37 -21 -12 -53 -32 -70 -44
-18 -12 -45 -30 -60 -40 -31 -18 -83 -54 -123 -84 -13 -10 -34 -25 -46 -33
-111 -73 -155 -105 -155 -112 0 -4 -15 -15 -32 -24 -18 -9 -49 -31 -70 -48
-20 -17 -58 -47 -84 -66 -47 -34 -109 -83 -169 -135 -16 -14 -53 -44 -81 -67
-103 -88 -157 -133 -168 -144 -6 -5 -56 -50 -111 -100 -80 -71 -182 -169 -317
-302 -22 -21 -220 -228 -258 -269 -53 -57 -149 -166 -213 -243 -26 -30 -58
-68 -72 -85 -14 -16 -43 -52 -65 -80 -22 -27 -53 -66 -69 -85 -36 -42 -75 -95
-98 -134 -10 -16 -31 -43 -48 -61 -31 -33 -54 -66 -106 -145 -36 -55 -75 -110
-89 -128 -25 -28 -96 -137 -115 -174 -11 -21 -25 -42 -31 -46 -6 -4 -23 -29
-38 -57 -15 -27 -37 -65 -49 -83 -72 -107 -97 -148 -97 -158 0 -6 -10 -24 -23
-39 -23 -29 -53 -84 -105 -190 -16 -33 -36 -66 -45 -73 -9 -7 -19 -26 -22 -42
-3 -16 -20 -48 -36 -70 -17 -23 -37 -62 -44 -87 -8 -25 -22 -55 -33 -67 -11
-11 -25 -39 -32 -61 -7 -22 -25 -62 -40 -90 -15 -27 -33 -68 -40 -90 -7 -22
-19 -47 -26 -56 -8 -8 -23 -41 -33 -72 -11 -31 -29 -68 -40 -84 -11 -15 -25
-50 -31 -76 -6 -26 -23 -71 -39 -100 -16 -29 -32 -70 -36 -92 -4 -22 -15 -54
-26 -71 -10 -17 -26 -60 -35 -95 -9 -35 -27 -86 -41 -112 -13 -26 -29 -73 -34
-104 -6 -31 -21 -77 -35 -102 -13 -25 -30 -80 -38 -123 -8 -42 -24 -95 -36
-117 -11 -23 -24 -72 -29 -109 -5 -38 -16 -82 -24 -99 -19 -35 -43 -135 -52
-218 -4 -33 -15 -78 -25 -100 -19 -41 -33 -112 -45 -220 -4 -33 -13 -75 -20
-95 -20 -52 -33 -130 -46 -275 -6 -71 -19 -163 -30 -203 -52 -205 -82 -1184
-51 -1672 26 -413 33 -487 51 -555 10 -38 22 -117 25 -175 8 -121 31 -259 51
-308 8 -18 19 -80 25 -138 7 -63 20 -131 34 -167 13 -34 31 -108 40 -165 8
-56 24 -119 34 -140 11 -20 24 -72 31 -115 6 -43 20 -96 32 -118 11 -23 26
-73 34 -112 16 -85 23 -106 43 -129 8 -9 20 -49 28 -89 7 -39 24 -90 38 -113
13 -22 29 -68 36 -101 6 -33 20 -73 31 -88 11 -15 26 -56 34 -91 7 -35 22 -77
34 -93 12 -16 29 -56 37 -88 9 -33 26 -72 39 -87 13 -15 26 -45 30 -68 4 -22
18 -57 32 -77 14 -21 32 -58 39 -84 8 -25 23 -57 33 -70 10 -14 24 -43 30 -65
6 -21 23 -57 39 -79 16 -22 32 -55 36 -74 3 -19 18 -49 31 -68 14 -18 32 -52
41 -75 8 -23 22 -50 32 -61 16 -18 42 -66 100 -183 16 -33 36 -63 44 -66 8 -3
20 -24 27 -47 6 -23 24 -56 39 -74 15 -17 36 -49 46 -69 11 -21 23 -38 27 -38
4 0 17 -21 28 -46 11 -25 32 -59 46 -76 14 -16 25 -36 25 -43 0 -8 13 -29 29
-47 15 -18 36 -47 45 -65 9 -17 24 -38 35 -45 10 -7 22 -24 26 -38 4 -14 19
-39 34 -56 35 -41 93 -121 110 -153 8 -14 25 -34 38 -44 13 -10 23 -25 23 -32
0 -13 43 -68 109 -141 16 -17 34 -42 41 -55 7 -13 24 -35 37 -49 32 -33 152
-176 184 -220 15 -19 49 -57 76 -85 27 -27 52 -58 56 -68 3 -9 18 -22 32 -29
14 -6 25 -15 25 -20 0 -5 18 -27 40 -49 22 -22 40 -44 40 -50 0 -5 10 -14 23
-20 12 -5 30 -23 39 -40 10 -16 27 -33 38 -37 12 -4 27 -19 33 -32 7 -14 25
-31 39 -38 15 -7 30 -21 33 -32 4 -11 20 -27 36 -35 16 -9 29 -22 29 -31 0 -8
15 -24 33 -34 19 -11 39 -31 45 -45 6 -14 16 -25 21 -25 9 0 37 -24 103 -88
17 -17 27 -26 179 -160 70 -61 132 -112 138 -112 6 0 18 -11 27 -25 9 -13 24
-27 34 -30 15 -5 52 -36 130 -109 14 -13 39 -31 55 -39 17 -8 41 -27 54 -41
14 -14 30 -26 37 -26 7 0 29 -16 50 -35 20 -19 42 -35 49 -35 6 0 22 -12 36
-26 13 -14 38 -33 54 -41 17 -9 45 -29 63 -44 18 -16 39 -29 46 -29 7 0 23
-12 37 -26 13 -14 40 -33 59 -41 19 -9 50 -29 68 -45 18 -15 39 -28 46 -28 7
0 21 -9 32 -21 10 -12 44 -34 75 -50 31 -15 59 -34 62 -42 3 -8 19 -17 35 -20
17 -3 45 -19 64 -36 18 -16 52 -34 75 -40 22 -6 44 -18 47 -27 3 -8 31 -26 61
-40 31 -13 65 -33 77 -44 11 -10 33 -22 48 -25 15 -3 51 -21 80 -40 29 -19 65
-37 80 -40 15 -3 38 -17 50 -30 12 -13 39 -26 60 -30 21 -4 53 -17 71 -31 19
-14 56 -31 83 -39 27 -8 59 -24 70 -34 12 -11 45 -26 73 -35 29 -8 68 -26 86
-40 19 -14 43 -26 54 -26 30 0 85 -20 108 -40 11 -9 49 -25 84 -35 36 -9 76
-25 90 -36 14 -10 56 -25 92 -32 36 -8 79 -24 95 -35 16 -12 58 -28 94 -36 36
-7 81 -23 101 -35 20 -12 65 -27 100 -33 35 -6 85 -21 110 -34 26 -13 78 -28
115 -34 38 -6 94 -22 125 -35 31 -14 92 -30 135 -36 43 -5 118 -24 165 -40 48
-16 102 -29 122 -29 49 0 136 -19 172 -38 18 -9 99 -23 198 -33 105 -11 188
-25 222 -38 43 -16 97 -23 242 -31 102 -6 217 -17 254 -25 228 -48 1303 -48
1544 0 39 7 160 19 270 25 151 9 213 16 255 31 30 11 129 29 220 39 91 11 190
28 221 39 31 11 96 25 145 31 48 6 116 22 149 36 34 13 69 24 79 24 38 0 173
32 207 50 20 10 68 23 109 29 40 6 95 22 124 36 28 13 78 28 111 34 32 6 80
22 105 35 25 13 70 29 100 35 30 6 75 22 100 35 25 13 69 29 98 35 56 12 93
27 103 44 4 5 34 16 69 23 34 8 78 26 98 39 20 13 57 29 81 35 24 6 60 22 80
35 20 13 56 29 81 35 25 7 59 23 77 36 17 13 37 24 43 24 19 0 110 42 110 51
0 5 25 16 55 25 31 8 64 24 74 35 9 10 40 26 68 34 28 8 56 22 64 31 7 8 40
29 73 45 125 62 185 94 203 111 10 9 30 19 45 23 14 4 35 16 45 27 10 11 41
30 68 43 28 12 58 32 69 43 10 11 31 24 46 27 15 3 36 15 46 27 11 11 41 31
67 44 26 14 50 31 53 39 3 8 21 19 40 25 31 10 51 24 149 103 17 13 41 30 54
37 37 19 167 115 240 178 21 17 41 32 45 32 7 0 130 92 161 121 80 75 97 89
104 89 7 0 33 22 106 89 11 10 87 77 168 150 247 219 515 495 780 804 17 20
44 49 60 64 15 15 27 32 27 37 0 8 42 58 110 131 15 17 35 44 43 60 8 17 27
41 41 54 14 14 26 30 26 36 0 6 14 24 30 38 17 15 30 31 30 36 0 5 16 28 35
51 19 23 38 53 41 66 4 14 14 29 24 34 23 12 70 13 70 1 0 -7 78 -89 130 -136
6 -5 21 -21 34 -35 14 -14 29 -29 35 -35 7 -5 22 -21 35 -35 14 -14 29 -29 35
-35 13 -13 135 -144 199 -215 28 -30 95 -109 150 -175 55 -66 111 -131 125
-145 13 -14 31 -38 41 -55 9 -16 39 -57 66 -90 28 -33 58 -73 68 -89 9 -16 26
-39 38 -50 11 -12 24 -30 28 -41 4 -11 20 -38 37 -60 51 -68 77 -108 100 -150
12 -22 35 -55 50 -73 16 -18 29 -39 29 -47 0 -7 11 -26 23 -42 13 -15 36 -54
50 -86 14 -31 30 -57 35 -57 6 0 17 -19 27 -42 9 -24 26 -59 39 -78 12 -19 28
-50 34 -69 7 -19 23 -48 36 -65 13 -17 26 -42 30 -56 10 -34 28 -72 42 -90 7
-8 22 -44 34 -80 13 -36 28 -72 36 -80 7 -8 20 -37 29 -65 9 -27 27 -70 39
-95 13 -25 27 -63 31 -84 3 -22 18 -62 31 -89 14 -27 34 -82 44 -122 10 -41
26 -87 34 -103 8 -16 24 -70 35 -120 11 -50 27 -105 36 -122 9 -17 25 -80 35
-138 11 -59 29 -141 40 -182 12 -41 22 -105 23 -142 l1 -67 -70 -70 c-38 -39
-75 -76 -82 -83 -8 -7 -23 -24 -35 -37 -12 -13 -33 -34 -47 -47 -14 -13 -29
-28 -35 -34 -95 -95 -292 -284 -362 -347 -24 -21 -60 -53 -80 -71 -21 -19 -51
-46 -68 -61 -27 -25 -122 -107 -254 -219 -24 -20 -58 -52 -77 -69 -18 -18 -36
-33 -40 -33 -3 0 -23 -14 -43 -30 -42 -36 -108 -88 -181 -145 -28 -22 -68 -55
-87 -73 -20 -17 -40 -32 -46 -32 -5 0 -27 -15 -48 -33 -48 -41 -115 -92 -156
-120 -18 -12 -52 -36 -75 -53 -24 -16 -68 -47 -98 -69 -30 -21 -57 -41 -60
-45 -3 -4 -24 -19 -47 -34 -24 -14 -43 -30 -43 -34 0 -4 -16 -14 -35 -21 -19
-6 -53 -28 -76 -47 -22 -18 -47 -34 -53 -34 -7 0 -21 -9 -32 -21 -10 -12 -40
-32 -65 -44 -25 -13 -51 -31 -59 -40 -7 -9 -29 -23 -49 -31 -20 -8 -45 -24
-56 -34 -11 -10 -36 -26 -56 -34 -20 -8 -42 -22 -50 -32 -7 -9 -33 -25 -58
-36 -24 -10 -56 -29 -72 -43 -16 -13 -39 -27 -51 -31 -12 -4 -45 -22 -71 -40
-27 -19 -55 -34 -62 -34 -6 0 -24 -11 -38 -24 -14 -13 -43 -30 -64 -36 -21 -7
-52 -23 -69 -35 -16 -13 -47 -30 -68 -39 -21 -9 -51 -27 -68 -41 -16 -14 -38
-25 -47 -25 -10 0 -35 -11 -56 -25 -20 -14 -65 -38 -100 -54 -34 -16 -65 -33
-69 -39 -3 -6 -30 -18 -59 -26 -28 -8 -60 -24 -69 -35 -9 -11 -36 -25 -60 -31
-24 -6 -59 -22 -78 -36 -20 -13 -56 -30 -82 -38 -26 -7 -60 -23 -76 -34 -16
-12 -51 -29 -77 -38 -27 -9 -60 -24 -74 -34 -14 -10 -46 -24 -71 -30 -25 -6
-61 -22 -80 -35 -19 -13 -57 -29 -85 -35 -27 -6 -66 -22 -85 -34 -19 -13 -59
-29 -87 -36 -29 -7 -64 -21 -78 -32 -14 -11 -52 -27 -83 -35 -31 -8 -75 -25
-97 -37 -22 -13 -67 -28 -100 -35 -33 -6 -72 -20 -87 -31 -15 -11 -58 -27 -95
-36 -37 -8 -89 -26 -114 -39 -25 -13 -71 -28 -103 -34 -32 -6 -73 -20 -91 -31
-18 -11 -69 -27 -115 -36 -46 -8 -104 -26 -129 -39 -25 -13 -80 -29 -121 -35
-41 -6 -92 -19 -112 -30 -20 -11 -77 -26 -125 -35 -48 -9 -113 -27 -143 -39
-30 -13 -86 -27 -123 -31 -38 -4 -101 -18 -140 -31 -40 -14 -119 -32 -177 -40
-58 -8 -121 -23 -141 -33 -20 -11 -60 -22 -90 -25 -209 -21 -270 -31 -314 -48
-33 -13 -104 -24 -213 -34 -96 -8 -175 -20 -192 -29 -28 -15 -161 -30 -360
-40 -115 -6 -266 -23 -415 -47 -60 -10 -285 -13 -920 -13 -750 0 -850 2 -930
17 -119 23 -245 36 -506 52 -161 10 -223 18 -248 30 -21 11 -87 22 -192 32
-87 8 -178 21 -202 28 -82 28 -123 35 -250 46 -95 8 -136 16 -161 31 -23 13
-74 25 -153 35 -69 9 -144 25 -180 39 -35 14 -104 29 -155 35 -51 6 -99 17
-108 24 -18 17 -105 42 -175 51 -27 3 -70 17 -95 29 -25 13 -81 28 -124 35
-44 6 -87 17 -95 25 -21 17 -40 24 -127 42 -41 8 -95 25 -121 38 -27 13 -76
28 -110 34 -34 6 -76 21 -92 33 -16 12 -61 28 -99 35 -40 8 -86 24 -107 39
-21 14 -50 25 -65 25 -37 0 -91 19 -115 40 -11 10 -47 24 -80 31 -33 7 -80 25
-105 40 -25 14 -67 32 -94 38 -27 7 -62 23 -78 36 -16 14 -48 27 -76 31 -26 4
-59 17 -75 30 -16 13 -41 27 -55 30 -77 17 -102 26 -102 34 0 13 -48 36 -91
44 -20 4 -53 20 -73 35 -20 16 -54 32 -76 36 -22 4 -55 19 -74 35 -20 15 -56
33 -81 39 -25 6 -49 19 -54 30 -7 12 -31 24 -63 31 -29 7 -64 23 -78 35 -14
12 -43 28 -65 35 -22 7 -51 22 -65 35 -14 12 -46 29 -71 39 -26 9 -55 26 -64
36 -10 11 -35 25 -55 30 -20 5 -50 21 -66 35 -16 14 -45 30 -65 35 -20 6 -44
19 -54 30 -9 10 -38 27 -64 37 -25 9 -52 26 -60 36 -7 10 -34 27 -58 38 -25
11 -59 31 -75 44 -16 14 -37 25 -47 25 -10 0 -30 13 -44 29 -14 17 -45 36 -68
42 -22 7 -48 23 -56 35 -8 12 -26 25 -41 29 -15 4 -45 21 -67 39 -22 18 -52
36 -67 39 -15 4 -29 16 -33 26 -3 11 -22 25 -42 32 -19 6 -52 26 -72 44 -20
17 -48 35 -62 38 -14 4 -31 18 -37 32 -7 14 -20 25 -31 25 -11 0 -37 16 -58
35 -21 19 -53 40 -71 46 -17 6 -37 20 -43 31 -6 11 -26 26 -44 34 -18 7 -36
22 -40 33 -3 11 -19 24 -34 29 -16 6 -47 26 -69 46 -22 20 -46 36 -55 36 -8 0
-22 12 -32 26 -9 14 -29 30 -45 36 -16 5 -32 18 -35 29 -4 11 -26 29 -51 40
-24 12 -44 25 -44 30 0 5 -19 22 -42 37 -24 15 -55 39 -70 55 -15 15 -33 27
-41 27 -8 0 -19 11 -25 25 -7 14 -23 30 -36 35 -14 5 -32 21 -42 35 -9 14 -22
25 -29 25 -8 0 -26 15 -42 34 -15 18 -39 39 -53 46 -25 13 -56 40 -132 113
-21 20 -45 37 -53 37 -8 0 -21 13 -29 29 -9 16 -27 32 -40 35 -16 4 -28 16
-32 30 -3 15 -17 29 -35 35 -16 5 -33 21 -38 35 -6 13 -19 27 -31 31 -11 4
-28 18 -37 31 -9 14 -29 32 -44 40 -16 8 -29 19 -29 25 0 13 -90 103 -118 118
-12 6 -22 18 -22 26 0 8 -14 22 -30 30 -17 9 -36 27 -42 40 -6 14 -19 27 -30
31 -10 3 -25 19 -34 35 -8 16 -25 35 -38 41 -13 5 -29 21 -35 34 -6 13 -21 29
-33 35 -13 5 -31 23 -40 40 -9 16 -24 29 -33 29 -9 0 -23 16 -31 35 -8 19 -21
35 -29 35 -9 0 -25 15 -36 34 -11 19 -28 36 -38 39 -10 2 -25 17 -32 33 -8 16
-24 33 -36 38 -11 6 -28 24 -37 42 -8 18 -24 35 -35 39 -12 3 -21 13 -21 20 0
8 -18 34 -40 57 -64 68 -74 80 -127 143 -27 33 -55 70 -61 82 -7 12 -20 24
-30 27 -10 4 -26 22 -35 41 -9 19 -24 35 -32 35 -9 0 -23 16 -31 35 -8 20 -21
38 -30 42 -8 3 -24 22 -34 43 -11 21 -31 47 -44 58 -14 10 -32 35 -41 54 -9
19 -26 38 -38 44 -12 5 -25 23 -29 40 -5 19 -16 34 -27 37 -11 3 -27 20 -35
38 -17 37 -70 110 -110 150 -13 14 -28 38 -32 53 -3 15 -19 33 -35 42 -16 8
-29 23 -29 33 0 11 -16 39 -36 63 -20 23 -41 55 -46 70 -5 15 -18 30 -28 33
-10 3 -24 21 -30 39 -6 18 -22 43 -35 56 -13 13 -32 42 -41 65 -9 24 -26 47
-38 53 -14 6 -26 23 -29 40 -3 16 -22 48 -41 71 -20 24 -36 49 -36 57 0 8 -9
22 -21 32 -11 9 -31 41 -44 70 -13 29 -31 55 -39 58 -8 3 -20 22 -26 42 -7 21
-22 46 -35 57 -12 11 -30 42 -40 68 -10 26 -26 52 -35 57 -9 5 -22 28 -29 52
-7 24 -25 57 -41 73 -15 17 -31 44 -34 61 -4 17 -18 42 -32 55 -13 12 -29 40
-34 61 -6 21 -22 50 -36 65 -13 14 -30 46 -36 71 -6 24 -19 49 -29 55 -11 7
-26 34 -35 62 -9 27 -26 60 -37 72 -11 13 -28 46 -39 75 -10 29 -26 60 -36 68
-11 9 -25 39 -32 68 -7 30 -21 58 -32 66 -11 8 -26 39 -34 72 -9 33 -24 66
-34 74 -10 8 -26 42 -36 75 -9 33 -27 73 -40 88 -13 15 -26 44 -30 65 -3 20
-19 56 -35 78 -15 23 -31 61 -35 85 -8 50 -20 77 -44 99 -10 8 -23 42 -29 74
-6 33 -19 69 -30 80 -21 24 -41 78 -41 111 0 12 -13 41 -29 66 -16 24 -32 64
-36 89 -4 25 -19 68 -35 95 -15 28 -32 79 -38 114 -7 38 -20 73 -32 86 -13 13
-26 51 -35 99 -8 42 -26 96 -39 119 -13 23 -27 67 -30 97 -4 30 -18 74 -32 98
-15 25 -31 76 -39 125 -13 80 -21 107 -50 157 -8 14 -15 41 -15 60 0 44 -26
148 -44 175 -16 24 -23 55 -36 158 -6 50 -17 89 -30 107 -15 21 -24 59 -34
142 -7 66 -21 132 -33 159 -23 52 -29 82 -42 216 -6 56 -17 106 -30 131 -15
29 -24 75 -31 159 -15 173 -30 274 -46 310 -9 19 -20 109 -29 230 -8 117 -22
229 -33 273 -33 127 -47 540 -47 1360 0 836 12 1141 51 1312 13 59 24 138 24
176 0 104 19 272 35 313 8 21 21 102 30 180 20 182 29 233 50 289 9 25 21 90
26 145 6 57 22 138 38 190 16 50 32 124 36 165 4 44 16 96 30 125 12 28 28 91
35 140 6 50 22 113 35 142 13 29 29 87 35 129 7 43 22 101 35 129 13 28 29 82
36 120 6 39 23 94 36 123 13 29 28 78 34 109 6 31 21 77 34 102 13 25 27 64
30 86 10 59 26 107 46 135 10 14 23 52 29 85 7 33 21 75 31 93 11 19 28 64 38
100 10 37 28 83 39 102 12 19 26 58 32 85 6 28 21 66 34 85 13 19 29 58 35 85
7 28 23 66 36 85 13 19 29 58 35 85 6 28 22 66 35 85 13 19 29 55 35 79 7 25
22 58 34 75 13 17 28 51 35 75 7 25 23 59 36 75 13 17 28 51 35 76 6 25 21 55
32 66 10 12 25 41 33 66 7 24 24 61 39 82 14 21 30 53 35 72 5 18 20 48 34 66
13 18 29 48 35 65 6 18 22 48 35 65 14 18 31 52 38 76 7 23 16 42 21 42 5 0
23 28 40 63 46 94 83 163 117 214 17 26 31 50 31 55 0 5 13 26 29 46 16 20 34
53 40 74 7 20 19 39 27 42 8 3 21 21 29 39 7 18 30 57 49 86 20 29 36 59 36
65 0 7 11 23 24 35 14 13 30 37 37 54 7 18 25 47 41 65 15 18 28 39 28 48 0 8
11 26 25 40 14 14 32 39 41 57 9 18 30 48 45 67 16 19 29 39 29 46 0 6 12 21
26 35 14 13 33 38 41 54 9 17 29 45 44 63 16 18 29 39 29 46 0 7 15 29 33 48
34 37 99 125 106 143 2 5 19 27 37 48 19 20 34 44 34 52 0 8 10 21 23 29 12 8
31 31 41 51 11 19 23 35 27 35 5 0 21 19 36 43 28 43 68 94 171 214 15 18 50
60 77 94 57 70 177 212 211 249 12 14 38 43 57 65 221 255 867 899 1093 1090
19 17 52 45 72 63 46 40 179 151 261 217 34 28 77 64 96 80 18 17 52 44 74 60
45 32 111 85 178 140 23 19 45 35 48 35 4 0 25 15 46 33 20 17 61 48 89 67 29
19 72 52 97 73 24 20 50 37 57 37 8 0 19 7 27 16 7 8 38 32 68 52 31 20 58 40
59 45 2 4 22 17 43 28 22 11 42 26 45 34 3 8 22 19 41 26 19 6 49 24 66 39 18
15 46 34 63 43 17 9 36 23 44 31 7 9 31 24 54 35 23 10 48 25 57 33 8 9 30 23
49 33 18 9 51 30 73 46 22 16 44 29 49 29 6 0 28 13 51 29 50 34 125 79 176
104 20 11 45 27 56 37 11 9 45 29 75 44 30 15 82 42 115 61 33 18 85 46 115
60 30 15 69 37 85 49 17 13 42 26 56 29 14 4 43 18 64 32 21 15 62 35 91 46
28 11 58 26 64 34 7 8 29 19 50 25 20 5 57 23 81 40 24 16 50 30 57 30 7 0 43
15 80 34 37 19 88 42 114 51 26 10 53 23 58 31 6 7 37 20 68 30 31 9 64 24 74
31 9 8 44 23 78 34 33 10 80 30 104 44 23 14 52 25 63 25 12 0 46 13 76 29 31
16 82 37 114 46 32 9 68 23 81 31 12 8 53 24 90 35 37 12 81 29 97 39 17 10
57 23 90 30 33 7 81 23 107 36 25 13 68 28 95 34 26 5 73 21 103 34 30 14 89
32 130 41 41 10 87 24 102 31 15 8 62 23 105 33 43 10 101 28 128 39 28 11 86
25 128 32 43 6 101 22 130 35 29 13 86 28 129 34 42 6 99 20 128 31 28 11 95
27 148 35 53 9 135 27 182 40 47 13 125 29 174 35 49 6 92 13 95 14 19 12 224
47 323 56 64 6 147 20 185 31 39 11 142 26 243 34 158 13 234 21 525 56 196
24 1456 29 1870 9z"/>
<path d="M26005 26331 c-12 -28 -15 -48 -10 -68 14 -50 17 -334 5 -473 -6 -74
-15 -259 -20 -410 -8 -247 -11 -284 -34 -360 -16 -57 -28 -131 -35 -225 -9
-135 -20 -197 -46 -260 -7 -16 -16 -66 -19 -110 -7 -81 -33 -185 -47 -185 -4
0 -10 -21 -14 -47 -10 -80 -37 -207 -47 -219 -11 -15 -48 -147 -48 -176 0 -12
-8 -40 -19 -62 -29 -64 -40 -97 -47 -149 -3 -26 -13 -54 -20 -62 -8 -7 -14
-17 -14 -22 0 -4 -6 -20 -14 -34 -7 -14 -16 -47 -20 -73 -4 -25 -11 -46 -15
-46 -12 0 -51 -98 -51 -129 0 -25 -29 -75 -52 -92 -5 -3 -11 -29 -15 -57 -3
-29 -12 -57 -19 -63 -8 -6 -14 -17 -14 -24 0 -7 -7 -18 -15 -25 -8 -7 -15 -24
-15 -37 0 -14 -16 -51 -35 -83 -19 -32 -35 -63 -35 -71 0 -20 -41 -99 -51 -99
-5 0 -9 -6 -9 -12 -1 -7 -9 -31 -20 -53 -11 -22 -19 -45 -20 -51 0 -7 -6 -14
-12 -17 -7 -2 -24 -32 -37 -66 -13 -33 -28 -61 -32 -61 -9 0 -39 -58 -39 -76
0 -7 -6 -19 -12 -26 -31 -33 -58 -79 -58 -98 0 -11 -13 -32 -29 -48 -16 -15
-33 -41 -37 -57 -4 -17 -20 -43 -36 -58 -15 -16 -28 -35 -28 -43 0 -7 -16 -34
-35 -60 -19 -25 -35 -52 -35 -59 0 -8 -13 -28 -29 -44 -16 -17 -32 -39 -36
-51 -4 -11 -20 -35 -36 -53 -16 -17 -39 -51 -50 -74 -12 -24 -25 -43 -29 -43
-5 0 -21 -20 -36 -45 -14 -25 -30 -45 -35 -45 -5 0 -9 -7 -9 -15 0 -9 -7 -18
-15 -21 -8 -4 -15 -11 -15 -18 0 -6 -14 -24 -30 -40 -16 -16 -32 -38 -36 -50
-3 -12 -19 -33 -35 -48 -16 -15 -29 -31 -29 -36 0 -11 -43 -63 -97 -119 -18
-19 -33 -37 -33 -41 0 -4 -23 -31 -50 -61 -28 -30 -50 -60 -50 -68 0 -7 -6
-13 -14 -13 -7 0 -22 -12 -31 -27 -10 -16 -28 -38 -39 -49 -12 -12 -41 -45
-66 -73 -25 -29 -75 -83 -112 -121 -38 -39 -68 -75 -68 -80 0 -6 -5 -10 -12
-10 -13 0 -58 -48 -58 -62 0 -4 -6 -8 -12 -8 -7 0 -22 -13 -32 -28 -10 -16
-34 -39 -52 -52 -19 -12 -34 -29 -34 -36 0 -8 -7 -14 -15 -14 -8 0 -15 -7 -15
-15 0 -8 -7 -15 -15 -15 -8 0 -15 -7 -15 -15 0 -8 -4 -15 -9 -15 -4 0 -61 -52
-126 -115 -65 -63 -126 -117 -136 -120 -11 -4 -22 -17 -25 -30 -4 -15 -15 -26
-33 -30 -14 -3 -31 -16 -36 -28 -6 -12 -20 -26 -31 -32 -12 -6 -34 -25 -49
-43 -15 -18 -32 -32 -39 -32 -7 0 -23 -13 -36 -30 -12 -16 -31 -32 -42 -36
-11 -3 -39 -26 -63 -50 -25 -24 -47 -44 -50 -44 -3 0 -18 -13 -34 -29 -15 -16
-38 -32 -50 -36 -11 -3 -21 -10 -21 -14 0 -8 -106 -91 -116 -91 -2 0 -18 -13
-34 -30 -16 -16 -34 -30 -40 -30 -5 0 -10 -5 -10 -11 0 -5 -13 -15 -28 -20
-16 -5 -39 -23 -51 -39 -12 -17 -28 -30 -36 -30 -8 0 -30 -16 -49 -35 -20 -19
-41 -35 -48 -35 -17 -1 -58 -35 -58 -48 0 -6 -13 -13 -28 -17 -15 -3 -39 -19
-52 -35 -14 -17 -32 -30 -41 -30 -9 0 -22 -7 -29 -15 -7 -8 -19 -15 -26 -15
-8 0 -14 -6 -14 -13 0 -12 -5 -16 -65 -47 -16 -8 -40 -25 -53 -37 -13 -12 -34
-25 -46 -29 -11 -4 -34 -19 -50 -35 -15 -15 -40 -30 -53 -34 -14 -3 -37 -19
-52 -36 -14 -16 -35 -29 -46 -29 -11 0 -32 -14 -47 -30 -14 -17 -40 -33 -56
-36 -17 -3 -43 -19 -58 -35 -15 -16 -34 -29 -41 -29 -16 0 -74 -39 -86 -57 -4
-7 -18 -13 -31 -13 -13 0 -29 -7 -36 -15 -7 -8 -19 -15 -26 -15 -8 0 -14 -6
-14 -14 0 -8 -12 -17 -27 -20 -35 -8 -93 -38 -93 -48 0 -4 -24 -19 -54 -33
-30 -14 -56 -30 -58 -36 -2 -5 -30 -20 -63 -34 -33 -13 -61 -29 -63 -34 -2 -6
-10 -11 -18 -11 -8 0 -14 -4 -14 -10 0 -5 -15 -13 -34 -19 -19 -5 -50 -20 -68
-34 -18 -14 -44 -28 -58 -32 -14 -3 -40 -19 -58 -34 -18 -16 -49 -32 -69 -36
-21 -4 -47 -17 -59 -30 -12 -14 -35 -27 -51 -31 -35 -8 -86 -35 -96 -51 -4 -6
-22 -15 -39 -19 -32 -7 -71 -27 -95 -50 -7 -7 -31 -15 -53 -19 -22 -4 -40 -11
-40 -16 0 -5 -7 -9 -15 -9 -9 0 -18 -7 -21 -15 -3 -8 -22 -17 -42 -21 -21 -4
-46 -13 -57 -20 -11 -8 -27 -14 -37 -14 -10 0 -18 -4 -18 -9 0 -10 -67 -44
-110 -56 -14 -4 -27 -11 -30 -14 -10 -13 -91 -51 -109 -51 -10 0 -36 -13 -57
-28 -22 -16 -57 -31 -78 -35 -22 -3 -42 -10 -45 -15 -11 -16 -86 -51 -122 -57
-20 -3 -48 -16 -63 -30 -14 -13 -43 -27 -64 -30 -42 -7 -103 -35 -114 -51 -4
-7 -28 -15 -53 -18 -24 -4 -47 -11 -50 -17 -4 -5 -13 -9 -22 -9 -8 0 -26 -9
-40 -20 -14 -11 -37 -20 -51 -20 -30 0 -112 -37 -112 -51 0 -5 -6 -9 -14 -9
-19 0 -126 -35 -161 -53 -57 -30 -103 -47 -124 -47 -12 0 -45 -13 -75 -28 -29
-16 -73 -32 -97 -36 -24 -4 -46 -10 -49 -14 -15 -20 -78 -45 -132 -52 -34 -5
-64 -13 -67 -17 -16 -21 -77 -45 -129 -50 -32 -3 -61 -12 -65 -19 -4 -8 -14
-14 -21 -14 -8 0 -19 -6 -25 -14 -6 -7 -37 -16 -69 -19 -32 -4 -72 -13 -88
-22 -16 -8 -34 -15 -41 -15 -6 0 -13 -5 -15 -11 -2 -5 -24 -13 -48 -16 -25 -3
-49 -9 -55 -13 -5 -5 -29 -13 -52 -19 -24 -7 -43 -16 -43 -20 0 -5 -17 -12
-37 -15 -63 -11 -166 -37 -198 -51 -42 -18 -138 -45 -161 -45 -11 0 -26 -6
-32 -12 -13 -13 -65 -28 -172 -51 -30 -7 -60 -15 -67 -20 -25 -16 -98 -37
-162 -47 -60 -10 -107 -25 -153 -50 -9 -5 -47 -12 -85 -16 -37 -4 -77 -13 -88
-20 -11 -8 -28 -14 -38 -14 -10 0 -31 -7 -45 -14 -15 -8 -62 -18 -104 -21 -43
-4 -80 -11 -84 -16 -3 -5 -13 -9 -22 -9 -9 0 -30 -7 -47 -16 -16 -9 -59 -18
-95 -21 -36 -2 -81 -10 -100 -18 -19 -8 -52 -16 -72 -20 -21 -3 -38 -10 -38
-14 0 -5 -35 -12 -77 -16 -43 -4 -82 -10 -88 -15 -5 -4 -37 -10 -69 -13 -33
-3 -62 -11 -66 -17 -4 -6 -49 -18 -101 -25 -144 -21 -212 -34 -239 -44 -26
-10 -117 -24 -295 -43 -69 -7 -109 -17 -127 -30 -59 -41 -19 -108 64 -108 18
0 49 -5 68 -10 19 -6 86 -15 148 -20 62 -6 120 -14 130 -20 21 -11 105 -27
226 -41 49 -6 95 -17 102 -24 7 -7 35 -16 61 -20 26 -4 53 -10 58 -15 6 -4 50
-11 100 -14 49 -4 94 -11 100 -15 23 -18 152 -51 201 -51 29 0 65 -6 81 -14
79 -38 104 -46 173 -51 41 -4 84 -10 95 -14 99 -40 134 -51 159 -51 32 0 168
-39 176 -51 3 -4 23 -10 45 -14 80 -13 180 -39 200 -51 11 -6 38 -15 60 -19
22 -4 45 -10 50 -15 6 -4 32 -10 59 -14 28 -3 53 -11 57 -17 6 -11 24 -16 151
-42 31 -7 63 -18 70 -24 6 -7 21 -13 33 -13 11 0 32 -6 46 -14 14 -7 51 -16
82 -20 34 -5 57 -13 61 -22 3 -8 19 -14 36 -14 16 0 30 -4 30 -9 0 -6 21 -13
48 -16 26 -3 74 -20 107 -36 35 -18 83 -33 115 -36 36 -4 69 -15 96 -33 26
-17 59 -29 95 -32 48 -5 115 -31 129 -50 3 -3 23 -9 45 -13 37 -6 65 -16 140
-50 17 -7 61 -23 99 -36 39 -12 76 -28 84 -35 7 -8 21 -14 30 -14 25 0 127
-34 143 -47 23 -19 82 -40 132 -47 26 -4 47 -11 47 -16 0 -12 87 -50 113 -50
11 0 41 -13 67 -29 26 -16 69 -33 94 -36 25 -4 50 -12 54 -19 10 -17 72 -44
112 -51 19 -3 48 -17 63 -31 15 -14 44 -28 65 -31 39 -5 122 -43 122 -55 0 -5
7 -8 16 -8 22 0 114 -41 114 -50 0 -5 15 -11 33 -15 17 -4 41 -13 52 -19 11
-7 32 -16 48 -20 15 -3 27 -11 27 -16 0 -6 6 -10 13 -10 6 -1 30 -9 52 -20 22
-11 45 -19 52 -20 7 0 16 -6 20 -12 12 -20 72 -48 99 -48 14 0 27 -6 30 -14 3
-8 19 -18 35 -21 16 -4 29 -11 29 -15 0 -5 17 -12 38 -16 20 -3 42 -11 47 -18
19 -22 60 -43 98 -50 21 -4 41 -14 44 -22 3 -7 11 -14 19 -14 8 0 14 -4 14 -9
0 -5 15 -12 33 -16 17 -4 48 -19 67 -35 20 -15 50 -31 67 -34 18 -4 50 -20 72
-36 22 -16 51 -32 65 -36 15 -3 26 -10 26 -15 0 -5 7 -9 15 -9 9 0 18 -7 21
-15 4 -8 11 -15 16 -15 15 0 101 -42 113 -56 6 -5 35 -21 65 -34 30 -14 59
-30 63 -37 4 -7 15 -13 22 -13 8 0 15 -4 15 -9 0 -5 12 -12 27 -16 15 -3 38
-17 51 -31 14 -13 42 -29 64 -34 21 -6 42 -18 45 -26 3 -7 11 -14 18 -14 7 0
15 -7 19 -15 3 -8 17 -15 31 -15 15 0 37 -12 55 -30 16 -16 41 -32 57 -36 15
-4 38 -18 51 -31 12 -14 37 -29 55 -34 18 -5 46 -22 63 -38 16 -15 39 -31 50
-35 12 -4 33 -17 46 -29 14 -12 42 -31 62 -41 21 -11 50 -31 64 -44 15 -13 42
-30 60 -38 17 -8 32 -18 32 -22 0 -4 23 -20 50 -35 28 -16 50 -32 50 -38 0 -5
7 -9 15 -9 8 0 15 -4 15 -10 0 -5 12 -13 28 -16 15 -4 39 -20 53 -35 14 -16
31 -29 38 -29 6 0 27 -16 47 -35 19 -19 39 -35 44 -35 5 0 25 -16 46 -35 20
-19 44 -35 53 -35 9 0 27 -13 41 -30 14 -16 30 -30 36 -30 12 0 73 -49 103
-82 8 -10 20 -18 25 -18 7 0 28 -16 108 -85 10 -8 35 -26 58 -40 22 -14 40
-30 40 -35 0 -6 5 -10 10 -10 6 0 31 -20 56 -45 24 -25 48 -45 52 -45 5 0 23
-16 42 -35 19 -19 40 -35 47 -35 6 0 25 -16 40 -35 15 -19 32 -35 36 -35 4 0
26 -18 48 -40 22 -22 44 -40 49 -40 5 0 11 -8 14 -18 3 -10 18 -25 33 -34 16
-9 61 -49 101 -87 40 -39 77 -71 82 -71 6 0 10 -4 10 -9 0 -13 108 -121 121
-121 5 0 9 -5 9 -12 0 -13 48 -58 62 -58 4 0 8 -4 8 -10 0 -13 37 -50 50 -50
6 0 10 -4 10 -8 0 -14 45 -62 58 -62 7 0 12 -5 12 -11 0 -5 16 -27 35 -47 19
-20 57 -61 85 -91 27 -29 50 -57 50 -62 0 -5 7 -9 15 -9 8 0 15 -5 15 -12 0
-6 17 -28 38 -48 20 -21 51 -55 69 -76 80 -97 99 -120 110 -127 7 -4 13 -13
13 -18 0 -6 13 -22 29 -37 16 -15 32 -37 35 -49 4 -12 16 -25 27 -28 12 -4 27
-21 34 -38 7 -18 23 -39 35 -47 12 -8 27 -28 34 -45 7 -16 25 -41 39 -55 15
-14 27 -29 27 -33 0 -5 6 -15 13 -22 6 -8 20 -25 29 -37 64 -86 88 -119 88
-124 0 -2 23 -35 50 -71 28 -36 50 -70 50 -75 0 -5 11 -19 24 -31 13 -12 27
-33 31 -47 8 -25 39 -74 62 -98 7 -7 13 -21 13 -30 0 -9 14 -30 30 -46 16 -15
32 -41 35 -57 4 -16 20 -42 36 -58 16 -16 29 -37 29 -46 0 -17 38 -77 52 -83
4 -2 8 -8 8 -13 0 -18 39 -96 55 -109 8 -7 15 -19 15 -26 0 -19 40 -94 50 -94
5 0 11 -14 15 -30 4 -17 10 -30 15 -30 4 0 11 -15 14 -34 4 -19 10 -36 14 -38
13 -5 52 -78 52 -97 0 -10 9 -30 20 -44 11 -14 20 -30 20 -35 0 -6 5 -12 11
-14 5 -2 13 -22 16 -46 3 -23 12 -47 19 -53 8 -6 14 -17 14 -24 0 -7 6 -18 14
-24 7 -6 17 -35 20 -63 4 -29 11 -55 15 -58 16 -11 51 -79 51 -99 0 -25 40
-121 51 -121 4 0 10 -19 14 -43 7 -46 33 -115 51 -134 6 -6 14 -33 17 -58 7
-51 33 -133 47 -150 5 -6 12 -31 16 -55 7 -54 41 -169 53 -184 9 -11 34 -131
46 -218 3 -27 10 -48 14 -48 13 0 40 -107 46 -185 4 -38 13 -90 20 -115 37
-122 43 -154 50 -271 4 -88 14 -150 31 -210 23 -76 26 -111 34 -369 6 -157 14
-319 19 -360 11 -88 9 -483 -3 -522 -8 -28 12 -90 35 -103 5 -4 32 -2 59 5 38
9 50 17 54 36 7 26 40 64 56 64 6 0 10 6 10 13 0 8 17 30 38 49 20 20 51 52
67 71 60 72 121 141 158 180 20 22 37 46 37 53 0 8 11 20 25 26 14 6 28 21 31
33 3 12 18 32 34 44 16 11 35 33 42 48 7 16 23 32 36 38 12 5 22 15 22 22 0 7
16 30 35 52 19 21 35 41 35 44 0 4 18 25 40 48 22 23 45 55 52 70 7 16 17 29
21 29 10 0 46 41 47 52 0 4 16 24 35 45 19 21 35 42 35 46 0 4 14 21 30 37 16
16 30 36 30 44 0 9 16 30 35 47 19 18 35 38 35 45 0 7 13 23 29 36 16 14 31
33 35 44 3 10 20 34 36 53 17 18 30 40 30 48 0 8 16 30 35 50 19 20 35 41 35
47 0 6 16 28 35 49 19 21 42 51 50 67 8 16 26 41 40 56 14 15 25 33 25 40 0 7
15 29 34 49 19 19 37 47 40 60 4 14 20 38 36 55 17 17 30 38 30 47 0 9 13 28
29 42 15 14 31 38 35 53 3 14 19 40 36 56 16 17 30 39 30 49 0 10 14 30 30 45
17 14 33 40 36 58 4 17 20 45 35 61 16 17 29 35 29 39 0 4 15 30 33 56 17 27
41 68 51 92 10 23 22 42 27 42 10 0 49 68 49 85 0 8 13 28 30 46 16 18 32 46
36 63 3 17 19 45 34 61 15 17 31 45 35 63 4 18 13 36 21 39 8 3 14 9 14 15 0
5 7 16 15 24 8 9 15 26 15 39 0 13 13 39 30 57 16 18 33 48 36 68 4 19 19 49
34 65 16 17 33 47 38 68 6 20 22 51 36 68 14 17 26 39 26 49 0 17 36 88 50
100 4 3 17 32 31 65 13 33 27 61 31 63 11 5 48 92 48 113 0 10 6 22 14 26 16
10 40 57 50 97 4 16 20 45 37 65 20 25 29 46 29 73 0 20 6 43 13 50 27 28 47
69 53 108 4 23 13 47 20 55 8 7 14 18 14 23 0 6 6 12 14 15 7 3 16 28 20 55 4
33 16 62 36 87 19 24 30 49 30 69 0 19 13 53 30 80 17 27 33 62 36 80 8 41 33
107 48 126 7 8 21 44 30 80 10 36 25 76 35 90 23 32 39 82 46 143 4 28 11 47
19 47 14 0 46 93 46 133 0 15 14 52 30 82 19 36 33 78 37 116 3 32 9 59 13 59
18 0 48 72 55 131 5 41 18 83 36 116 19 33 29 67 29 92 0 45 25 128 45 151 8
8 19 52 25 98 7 50 20 100 34 125 13 23 27 69 31 102 9 78 32 167 45 175 10 6
19 45 40 180 6 36 17 79 24 95 20 44 44 160 50 239 3 37 10 74 15 80 21 26 40
107 46 206 5 74 16 129 35 185 21 60 29 108 34 193 4 79 14 135 31 189 20 61
27 110 34 242 5 91 14 186 20 211 40 176 49 264 50 455 1 93 6 172 15 205 7
30 16 93 20 140 3 47 10 117 15 155 6 42 10 381 11 835 0 616 -3 795 -15 920
-9 85 -20 173 -26 195 -5 22 -14 149 -19 283 -7 171 -14 255 -25 287 -8 25
-15 61 -15 80 0 18 -5 46 -11 61 -5 16 -14 101 -19 190 -9 153 -25 247 -49
293 -6 11 -14 75 -18 143 -5 96 -12 141 -33 203 -19 54 -30 112 -35 180 -6 99
-25 186 -45 210 -5 7 -12 41 -15 76 -7 75 -33 206 -47 233 -12 23 -48 191 -48
226 0 14 -7 36 -16 48 -18 26 -40 108 -49 183 -4 30 -17 74 -30 99 -14 26 -28
80 -35 130 -6 47 -18 92 -26 100 -22 25 -44 99 -44 147 0 30 -9 61 -29 96 -19
35 -31 74 -36 120 -4 37 -11 67 -16 67 -5 0 -9 6 -9 13 0 7 -8 22 -18 33 -11
11 -21 43 -25 75 -4 31 -20 82 -37 115 -16 32 -30 72 -30 87 0 32 -38 127 -51
127 -4 0 -11 21 -14 48 -9 66 -25 114 -45 137 -9 11 -25 52 -35 90 -10 39 -24
77 -31 85 -17 20 -41 86 -49 133 -3 20 -9 37 -13 37 -13 0 -51 83 -56 122 -2
21 -14 47 -25 60 -22 23 -41 77 -41 116 0 12 -5 22 -10 22 -6 0 -14 8 -17 18
-4 9 -13 23 -20 30 -7 7 -13 23 -13 35 0 27 -34 102 -55 123 -8 9 -15 32 -15
53 0 28 -7 45 -29 67 -16 17 -33 43 -36 60 -10 43 -36 98 -51 107 -8 4 -14 16
-14 26 0 26 -39 111 -50 111 -6 0 -10 6 -10 13 -1 6 -9 30 -20 52 -11 22 -19
46 -20 53 0 6 -4 12 -10 12 -11 0 -50 77 -50 100 0 9 -11 30 -25 46 -14 16
-31 47 -37 69 -7 22 -25 52 -40 67 -16 15 -28 36 -28 47 0 31 -15 63 -44 94
-14 15 -26 37 -26 48 0 11 -16 41 -35 66 -19 25 -35 53 -35 63 0 9 -13 31 -29
49 -16 18 -32 47 -35 65 -4 18 -20 48 -36 66 -17 19 -30 42 -30 52 0 10 -4 18
-10 18 -5 0 -10 6 -10 13 0 8 -8 21 -19 31 -10 9 -27 36 -37 59 -10 23 -33 62
-51 86 -18 24 -33 49 -33 56 0 6 -11 22 -25 35 -14 13 -30 41 -36 63 -6 22
-23 50 -40 64 -16 14 -29 33 -29 42 0 10 -14 33 -30 51 -17 19 -33 46 -37 60
-3 14 -19 37 -34 51 -16 14 -29 33 -29 42 0 9 -13 30 -29 46 -16 17 -33 40
-37 53 -10 32 -37 67 -51 68 -6 0 -14 13 -18 29 -3 16 -18 42 -33 58 -15 15
-35 44 -45 63 -11 19 -31 46 -46 60 -16 15 -31 38 -35 53 -3 15 -11 27 -16 27
-14 0 -50 42 -50 59 0 9 -16 33 -35 55 -19 21 -35 44 -35 51 0 8 -13 23 -30
35 -16 12 -30 29 -30 39 0 10 -16 31 -35 47 -19 16 -35 36 -35 44 0 8 -16 32
-35 53 -19 21 -35 42 -35 46 0 5 -16 26 -35 47 -54 61 -55 63 -55 74 0 5 -6
10 -14 10 -7 0 -19 12 -25 28 -6 15 -29 46 -51 70 -22 24 -40 46 -40 51 0 4
-16 22 -35 40 -19 17 -35 38 -35 46 0 7 -13 22 -30 32 -16 9 -30 23 -30 29 0
7 -15 27 -32 45 -18 18 -37 42 -43 53 -6 12 -20 25 -32 31 -12 5 -25 20 -28
32 -6 26 -39 63 -55 63 -5 0 -10 7 -10 15 0 9 -7 18 -15 21 -8 4 -15 10 -15
14 0 9 -59 77 -102 118 -16 14 -28 31 -28 38 0 8 -13 20 -29 29 -16 8 -32 23
-35 33 -4 10 -20 28 -36 40 -17 13 -30 31 -30 42 0 32 -28 50 -79 50 -46 0
-49 -2 -66 -39z"/>
</g>
</svg>