<?xml version="1.0" standalone="no"?>
<!DOCTYPE svg PUBLIC "-//W3C//DTD SVG 20010904//EN"
 "http://www.w3.org/TR/2001/REC-SVG-20010904/DTD/svg10.dtd">
<svg version="1.0" xmlns="http://www.w3.org/2000/svg"
 width="2048.000000pt" height="1536.000000pt" viewBox="0 0 2048.000000 1536.000000"
 preserveAspectRatio="xMidYMid meet">

<g transform="translate(0.000000,1536.000000) scale(0.100000,-0.100000)"
fill="#000000" stroke="none">
<path d="M9882 13409 c-463 -52 -872 -313 -1104 -706 -50 -84 -105 -178 -624
-1078 -652 -1130 -768 -1332 -949 -1645 -87 -151 -315 -547 -508 -880 -193
-333 -393 -679 -445 -770 -113 -197 -146 -255 -557 -965 -175 -302 -361 -624
-413 -715 -52 -91 -120 -208 -150 -260 -30 -52 -105 -183 -167 -290 -62 -107
-245 -424 -407 -705 -333 -576 -311 -537 -845 -1465 -218 -377 -419 -725 -448
-775 -76 -128 -416 -718 -496 -860 -38 -66 -65 -121 -60 -123 5 -2 150 17 322
42 3110 447 6594 683 9119 616 2428 -64 4200 -337 5553 -854 37 -14 67 -24 67
-22 0 8 -252 191 -415 302 -384 262 -815 522 -1290 779 -155 84 -669 341 -810
405 -729 333 -1251 534 -2075 800 -248 80 -786 224 -1115 299 -876 199 -1617
308 -2509 367 -461 30 -1469 29 -1835 -3 -70 -6 -74 -5 -67 13 4 10 83 149
176 309 180 312 336 582 488 845 52 91 118 206 147 255 28 50 95 164 147 255
280 485 530 917 681 1180 377 652 528 913 627 1087 58 101 108 183 111 183 3
0 69 -109 146 -242 259 -447 429 -741 608 -1053 215 -372 331 -575 709 -1228
158 -273 285 -501 282 -506 -3 -5 -32 -12 -63 -16 -98 -12 -349 -64 -555 -116
-331 -83 -657 -186 -1029 -325 -227 -85 -301 -117 -254 -109 444 74 1574 -22
2580 -221 1675 -331 3049 -868 3955 -1548 147 -110 165 -123 158 -110 -3 5
-56 97 -118 204 -115 201 -177 308 -297 515 -39 66 -157 271 -263 455 -106
184 -214 371 -240 415 -26 44 -102 177 -170 295 -68 118 -212 368 -320 555
-108 187 -259 448 -335 580 -76 132 -168 292 -205 355 -66 113 -214 370 -395
685 -51 89 -173 300 -272 470 -210 363 -503 871 -699 1210 -176 307 -693 1202
-1186 2055 -30 52 -98 169 -150 260 -52 91 -144 251 -205 355 -60 105 -181
314 -268 465 -223 387 -288 479 -425 602 -211 188 -474 318 -735 362 -118 20
-300 27 -403 15z"/>
</g>
</svg>
